<svg width="87" height="86" viewBox="0 0 87 86" fill="none" xmlns="http://www.w3.org/2000/svg">
<path d="M87 44.2842C85.4533 46.0874 83.404 46.6526 81.1458 46.6872C78.8877 46.7218 76.6489 46.7487 74.4062 46.6872C71.7266 46.5987 70.2457 45.1493 70.3114 42.8693C70.3694 40.7431 71.7382 39.6012 74.4024 39.5628C77.1632 39.5205 79.9278 39.5628 82.6886 39.5436C84.475 39.5436 85.956 40.1049 87 41.6044V44.2842Z" fill="#F2C053"/>
<path d="M0 41.5928C1.37267 40.0549 3.12427 39.4782 5.16973 39.5243C7.80293 39.582 10.44 39.5013 13.0732 39.5628C15.2192 39.6089 16.3947 40.5778 16.6537 42.331C16.8045 43.1974 16.6046 44.0879 16.0975 44.8082C15.5904 45.5285 14.8174 46.0201 13.9471 46.1758C10.1577 47.0524 6.30653 46.9448 2.48627 46.2681C1.32627 46.0643 0.622533 45.1954 0.00386667 44.2726L0 41.5928Z" fill="#F2C053"/>
<path d="M44.776 69.7251C41.296 69.802 38.2529 69.3137 35.1828 69.0138C34.8274 69.0165 34.4831 68.8909 34.2136 68.6605C33.9441 68.43 33.7678 68.1102 33.7173 67.7604C32.5573 62.2624 29.464 57.6486 26.7573 52.8657C21.4329 43.5575 23.8573 32.1462 32.5573 26.5598C39.0572 22.3805 45.9631 22.2651 52.6949 26.0176C59.2683 29.6894 63.0421 35.3028 63.1001 43C63.1233 45.9374 62.118 48.6788 60.7801 51.2432C58.9241 54.7535 56.9367 58.1946 54.9569 61.6241C53.9399 63.2617 53.3154 65.1101 53.1319 67.0261C53.0352 68.514 52.1884 69.2022 50.7848 69.306C48.6388 69.479 46.5431 69.9404 44.776 69.7251ZM32.1977 46.1105C34.1311 38.5862 39.1577 33.9417 46.6629 31.0851C41.9031 29.8509 38.1563 30.9351 35.1055 33.9994C31.7415 37.3867 30.4732 41.4352 32.1977 46.1105Z" fill="#F2C053"/>
<path d="M42.9393 72.724C45.4412 72.5308 47.9575 72.6405 50.4329 73.0508C52.9733 73.5276 53.4218 74.0466 53.4334 76.5957C53.4334 77.0455 53.4334 77.4915 53.4334 77.9414C53.4334 82.2937 53.5881 81.9592 49.9534 83.1011C49.2247 83.3475 48.5454 83.7197 47.9466 84.2007C44.8533 86.596 42.1195 86.619 39.1345 84.1161C38.1137 83.2587 37.0155 82.6205 35.7047 82.5436C34.015 82.4474 33.5046 81.5516 33.5665 80.0252C33.6384 78.6164 33.6384 77.2048 33.5665 75.796C33.4621 74.1081 34.3398 73.3353 35.8556 73.0239C36.4139 72.8738 36.9845 72.7734 37.5607 72.724C39.3394 72.7009 41.1413 72.724 42.9393 72.724Z" fill="#F2C053"/>
<path d="M64.8865 60.7475C65.3708 60.8788 65.838 61.0659 66.2785 61.305C69.4801 63.3927 72.2951 65.9188 74.3753 69.1291C75.5353 70.9323 75.1796 72.6625 73.602 73.8774C72.442 74.7617 71.3129 74.9232 70.0756 74.0312C66.8083 71.6705 64.2021 68.7024 61.9556 65.392C61.2171 64.3001 61.3717 63.2197 62.0561 62.1586C62.6709 61.2243 63.5487 60.7975 64.8865 60.7475Z" fill="#F2C053"/>
<path d="M40.1398 8.28552C40.1398 6.68225 40.1166 5.07898 40.1398 3.47955C40.1746 1.64944 41.2302 0.361435 42.889 0.0576979C44.5478 -0.24604 45.9824 0.63057 46.6242 2.4107C47.5677 5.07898 47.328 7.85106 47.0998 10.5924C47.0223 12.0049 46.6814 13.3908 46.0945 14.6794C45.4836 15.9328 44.5826 16.8978 43.094 16.5633C41.5086 16.2096 40.221 15.3138 40.1553 13.4875C40.0934 11.7612 40.1553 10.0272 40.1553 8.3009L40.1398 8.28552Z" fill="#F2C053"/>
<path d="M15.1689 74.6849C12.8489 74.6849 11.1475 71.9935 12.2766 70.0481C14.5077 66.2033 17.9142 63.4466 21.5875 61.0474C22.6702 60.34 23.7103 61.0167 24.5069 61.8356C25.3034 62.6545 25.9569 63.6465 25.2802 64.7576C22.9813 68.6192 19.8372 71.9163 16.0814 74.4042C15.7946 74.5465 15.4864 74.6413 15.1689 74.6849Z" fill="#F2C053"/>
<path d="M14.8132 11.5728C15.6291 11.5728 16.2825 12.015 16.9051 12.461C20.0048 14.7454 22.7028 17.5243 24.8897 20.6849C25.81 21.9845 25.7056 23.1956 24.5804 24.2952C23.4552 25.3948 22.1289 25.9215 20.6287 24.8488C17.3423 22.4867 14.5589 19.5008 12.4391 16.0635C11.2365 14.145 12.7059 11.5574 14.8132 11.5728Z" fill="#F2C053"/>
<path d="M61.4568 22.1767C61.4625 21.5461 61.6833 20.9361 62.0832 20.4466C64.2369 17.5745 66.5569 14.8524 69.4299 12.6686C71.3632 11.2114 72.6701 11.2345 74.0273 12.6378C75.3845 14.0412 75.3575 15.21 73.9809 17.067C71.7885 20.0236 69.0045 22.3805 66.1703 24.6797C65.3467 25.3756 64.4264 25.7601 63.3553 25.1603C62.8177 24.8552 62.3634 24.4237 62.0324 23.9036C61.7014 23.3834 61.5038 22.7905 61.4568 22.1767Z" fill="#F2C053"/>
</svg>
