<?xml version="1.0" encoding="UTF-8" standalone="no"?> <svg xmlns="http://www.w3.org/2000/svg" viewBox="0 0 225 223.68"><title>ito-idea-lamp</title><g id="Livello_2" data-name="Livello 2"><g id="Livello_1-2" data-name="Livello 1"><path d="M225,115.18c-4,4.69-9.3,6.16-15.14,6.25s-11.63.16-17.43,0c-6.93-.23-10.76-4-10.59-9.93.15-5.53,3.69-8.5,10.58-8.6,7.14-.11,14.29,0,21.43-.05,4.62,0,8.45,1.46,11.15,5.36Z"/><path d="M0,108.18c3.55-4,8.08-5.5,13.37-5.38,6.81.15,13.63-.06,20.44.1,5.55.12,8.59,2.64,9.26,7.2a8.66,8.66,0,0,1-7,10c-9.8,2.28-19.76,2-29.64.24-3-.53-4.82-2.79-6.42-5.19Z"/><path d="M115.8,181.35c-9,.2-16.87-1.07-24.81-1.85a3.8,3.8,0,0,1-3.79-3.26c-3-14.3-11-26.3-18-38.74-13.77-24.21-7.5-53.89,15-68.42,16.81-10.87,34.67-11.17,52.08-1.41,17,9.55,26.76,24.15,26.91,44.17.06,7.64-2.54,14.77-6,21.44-4.8,9.13-9.94,18.08-15.06,27a32.63,32.63,0,0,0-4.72,14.05c-.25,3.87-2.44,5.66-6.07,5.93C125.79,180.71,120.37,181.91,115.8,181.35ZM83.27,119.93c5-19.57,18-31.65,37.41-39.08-12.31-3.21-22-.39-29.89,7.58C82.09,97.24,78.81,107.77,83.27,119.93Z"/><path d="M111.05,189.15a80.13,80.13,0,0,1,19.38.85c6.57,1.24,7.73,2.59,7.76,9.22,0,1.17,0,2.33,0,3.5,0,11.32.4,10.45-9,13.42A16.94,16.94,0,0,0,124,219c-8,6.23-15.07,6.29-22.79-.22-2.64-2.23-5.48-3.89-8.87-4.09-4.37-.25-5.69-2.58-5.53-6.55a108.48,108.48,0,0,0,0-11c-.27-4.39,2-6.4,5.92-7.21a25.19,25.19,0,0,1,4.41-.78C101.74,189.09,106.4,189.15,111.05,189.15Z"/><path d="M167.81,158a16.66,16.66,0,0,1,3.6,1.45c8.28,5.43,15.56,12,20.94,20.35,3,4.69,2.08,9.19-2,12.35-3,2.3-5.92,2.72-9.12.4-8.45-6.14-15.19-13.86-21-22.47-1.91-2.84-1.51-5.65.26-8.41C162.08,159.24,164.35,158.13,167.81,158Z"/><path d="M103.81,21.55c0-4.17-.06-8.34,0-12.5.09-4.76,2.82-8.11,7.11-8.9s8,1.49,9.66,6.12c2.44,6.94,1.82,14.15,1.23,21.28a29.69,29.69,0,0,1-2.6,10.63c-1.58,3.26-3.91,5.77-7.76,4.9-4.1-.92-7.43-3.25-7.6-8-.16-4.49,0-9,0-13.49Z"/><path d="M39.23,194.25c-6,0-10.4-7-7.48-12.06,5.77-10,14.58-17.17,24.08-23.41,2.8-1.84,5.49-.08,7.55,2.05s3.75,4.71,2,7.6a77.72,77.72,0,0,1-23.79,25.09A7.61,7.61,0,0,1,39.23,194.25Z"/><path d="M38.31,30.1c2.11,0,3.8,1.15,5.41,2.31A90.41,90.41,0,0,1,64.37,53.8c2.38,3.38,2.11,6.53-.8,9.39s-6.34,4.23-10.22,1.44A79.43,79.43,0,0,1,32.17,41.78C29.06,36.79,32.86,30.06,38.31,30.1Z"/><path d="M158.94,57.68a7.24,7.24,0,0,1,1.62-4.5c5.57-7.47,11.57-14.55,19-20.23,5-3.79,8.38-3.73,11.89-.08s3.44,6.69-.12,11.52c-5.67,7.69-12.87,13.82-20.2,19.8C169,66,166.62,67,163.85,65.44A9.79,9.79,0,0,1,158.94,57.68Z"/></g></g></svg>