<svg width="55" height="55" viewBox="0 0 55 55" fill="none" xmlns="http://www.w3.org/2000/svg">
<path d="M27.5 3.4375C21.1204 3.44449 15.004 5.98189 10.493 10.493C5.98189 15.004 3.44449 21.1204 3.4375 27.5C4.75836 59.4223 50.2465 59.4131 51.5625 27.4998C51.5555 21.1202 49.0181 15.0039 44.507 10.4929C39.9959 5.98186 33.8796 3.44449 27.5 3.4375V3.4375ZM27.9641 9.86562C33.641 10.0486 33.6406 18.2717 27.964 18.4594C22.2849 18.2766 22.2871 10.042 27.9641 9.86562ZM28.9867 45.1344H27.732C26.3813 45.1279 25.0864 44.5943 24.1233 43.6473C23.1602 42.7002 22.6049 41.4145 22.5758 40.0641C22.5112 35.8233 23.1739 31.6028 24.5352 27.5859C23.8531 27.231 23.3091 26.6585 22.9893 25.9593C22.6695 25.2601 22.5924 24.4741 22.77 23.7261C22.9477 22.978 23.37 22.3106 23.97 21.8298C24.57 21.349 25.3133 21.0823 26.0821 21.072C27.053 20.9574 28.0367 21.1088 28.9282 21.5099C29.8197 21.911 30.5855 22.5468 31.1437 23.3493C33.4603 26.6681 30.35 30.1619 29.9924 33.7563C29.706 35.2538 29.5307 36.7704 29.468 38.2937C30.3293 38.4155 31.1124 38.8593 31.6594 39.5357C32.2064 40.212 32.4766 41.0706 32.4156 41.9384C32.3545 42.8061 31.9668 43.6184 31.3304 44.2115C30.6941 44.8046 29.8566 45.1344 28.9867 45.1344V45.1344Z" fill="#2A4459"/>
<path d="M27.9641 16.7407C28.6428 16.7331 29.2912 16.4581 29.7684 15.9754C30.2457 15.4927 30.5133 14.8413 30.5133 14.1626C30.5133 13.4838 30.2456 12.8324 29.7684 12.3497C29.2911 11.8671 28.6428 11.5921 27.964 11.5845C27.2853 11.5921 26.637 11.8671 26.1597 12.3498C25.6824 12.8325 25.4148 13.4839 25.4148 14.1626C25.4148 14.8414 25.6825 15.4928 26.1598 15.9755C26.637 16.4581 27.2854 16.7331 27.9641 16.7407Z" fill="#2A4459"/>
<path d="M28.9867 39.9782C28.3695 40.0472 27.7386 39.8264 27.7321 39.1101C27.7758 35.1313 28.5657 31.1961 30.061 27.5086C31.0779 24.8098 28.8355 22.441 26.082 22.7908C25.6557 22.7965 25.2467 22.9602 24.9343 23.2503C24.6218 23.5403 24.428 23.936 24.3906 24.3607C24.3532 24.7854 24.4747 25.2089 24.7316 25.5491C24.9886 25.8894 25.3626 26.1221 25.7813 26.2024C25.9043 26.2257 26.0207 26.2754 26.1226 26.348C26.2245 26.4207 26.3094 26.5146 26.3715 26.6232C26.4336 26.7319 26.4713 26.8527 26.4822 26.9774C26.4931 27.1021 26.4767 27.2276 26.4344 27.3453C24.9527 31.4103 24.2274 35.7122 24.2945 40.0383C24.3141 40.9383 24.6844 41.7951 25.3265 42.426C25.9687 43.0569 26.8318 43.412 27.732 43.4157H28.9867C29.4385 43.4094 29.8696 43.2256 30.1868 42.904C30.5041 42.5823 30.682 42.1487 30.682 41.6969C30.682 41.2451 30.5041 40.8115 30.1868 40.4899C29.8696 40.1682 29.4385 39.9844 28.9867 39.9782Z" fill="#2A4459"/>
</svg>
