<svg width="88" height="88" viewBox="0 0 88 88" fill="none" xmlns="http://www.w3.org/2000/svg">
<path d="M74.25 26.125V31.625C74.25 31.9896 74.1051 32.3394 73.8473 32.5972C73.5894 32.8551 73.2397 33 72.875 33H15.125C14.7603 33 14.4106 32.8551 14.1527 32.5972C13.8949 32.3394 13.75 31.9896 13.75 31.625V26.125C13.75 25.7603 13.8949 25.4105 14.1527 25.1527C14.4106 24.8948 14.7603 24.75 15.125 24.75H72.875C73.2397 24.75 73.5894 24.8948 73.8473 25.1527C74.1051 25.4105 74.25 25.7603 74.25 26.125ZM31.625 6.87496C31.6242 6.26367 31.4878 5.66018 31.2256 5.108C30.9634 4.55581 30.5819 4.06868 30.1087 3.68175C29.6354 3.29481 29.0822 3.0177 28.489 2.8704C27.8957 2.7231 27.2771 2.70928 26.6779 2.82994C25.7276 3.04303 24.88 3.57757 24.2782 4.34328C23.6765 5.10899 23.3574 6.05894 23.375 7.03265V22H31.625V6.87496ZM64.625 6.87496C64.6242 6.26367 64.4878 5.66018 64.2256 5.108C63.9634 4.55581 63.5819 4.06868 63.1087 3.68175C62.6354 3.29481 62.0822 3.0177 61.489 2.8704C60.8957 2.7231 60.2771 2.70928 59.6779 2.82994C58.7276 3.04303 57.88 3.57757 57.2782 4.34328C56.6765 5.10899 56.3574 6.05894 56.375 7.03265V22H64.625V6.87496ZM39.875 83.875C39.8761 84.2393 40.0213 84.5884 40.2789 84.846C40.5366 85.1037 40.8857 85.2489 41.25 85.25H46.75C47.1143 85.2489 47.4634 85.1037 47.7211 84.846C47.9787 84.5884 48.1239 84.2393 48.125 83.875V82.5H39.875V83.875ZM43.6556 55.4646C43.7846 55.6108 43.881 55.7828 43.9385 55.9692C43.9961 56.1555 44.0134 56.352 43.9893 56.5455L43.2568 62.408L50.875 52.25H45.375C45.18 52.25 44.9873 52.2086 44.8096 52.1284C44.6318 52.0482 44.4732 51.9312 44.3441 51.785C44.2151 51.6389 44.1187 51.4669 44.0612 51.2806C44.0037 51.0943 43.9865 50.8979 44.0107 50.7045L44.7432 44.8419L37.125 55H42.625C42.8199 54.9999 43.0126 55.0413 43.1903 55.1214C43.3679 55.2015 43.5265 55.3185 43.6556 55.4646ZM19.25 35.75H68.75V56.375C68.75 61.1157 66.8667 65.6623 63.5145 69.0145C60.1623 72.3667 55.6157 74.25 50.875 74.25H37.125C32.3843 74.25 27.8377 72.3667 24.4855 69.0145C21.1333 65.6623 19.25 61.1157 19.25 56.375V35.75ZM33.145 56.9899C33.2592 57.2184 33.4348 57.4105 33.652 57.5447C33.8693 57.6789 34.1196 57.75 34.375 57.75H41.0674L39.8857 67.2045C39.848 67.5053 39.9108 67.8101 40.0644 68.0715C40.2181 68.3328 40.4539 68.536 40.735 68.6493C40.8983 68.716 41.073 68.7502 41.2493 68.75C41.4629 68.7501 41.6736 68.7004 41.8646 68.6048C42.0556 68.5093 42.2217 68.3704 42.3497 68.1994L54.7247 51.6994C54.878 51.4952 54.9714 51.2524 54.9944 50.9981C55.0173 50.7438 54.969 50.4881 54.8549 50.2597C54.7407 50.0313 54.5651 49.8393 54.3479 49.7051C54.1307 49.5709 53.8803 49.4999 53.625 49.5H46.9326L48.1143 40.0455C48.1519 39.7446 48.0891 39.4398 47.9355 39.1783C47.782 38.9169 47.5463 38.7136 47.2652 38.6C46.9841 38.4864 46.6733 38.4689 46.3812 38.5503C46.0892 38.6316 45.8322 38.8072 45.6503 39.0498L33.2753 55.5505C33.1219 55.7546 33.0284 55.9974 33.0054 56.2517C32.9824 56.506 33.0308 56.7616 33.145 56.9899ZM37.125 77C36.6575 77 36.2038 76.9862 35.75 76.945V78.375C35.7511 78.7393 35.8963 79.0884 36.1539 79.346C36.4116 79.6037 36.7607 79.7489 37.125 79.75H50.875C51.2393 79.7489 51.5884 79.6037 51.8461 79.346C52.1037 79.0884 52.2489 78.7393 52.25 78.375V76.945C51.7962 76.9862 51.3425 77 50.875 77H37.125Z" fill="black"/>
</svg>
