<svg width="101" height="101" viewBox="0 0 101 101" fill="none" xmlns="http://www.w3.org/2000/svg">
<path d="M37.875 44.1875V47.3438H40.7598C40.4332 48.2663 39.8287 49.065 39.0294 49.6299C38.2302 50.1948 37.2756 50.4981 36.2969 50.4981C35.3182 50.4981 34.3635 50.1948 33.5643 49.6299C32.7651 49.065 32.1606 48.2663 31.8339 47.3438H34.7188V44.1875H31.8339C32.1606 43.2649 32.7651 42.4662 33.5643 41.9013C34.3635 41.3365 35.3182 41.0332 36.2969 41.0332C37.2756 41.0332 38.2302 41.3365 39.0294 41.9013C39.8287 42.4662 40.4332 43.2649 40.7598 44.1875H37.875ZM40.7598 63.125C40.4332 62.2024 39.8287 61.4037 39.0294 60.8388C38.2302 60.274 37.2756 59.9707 36.2969 59.9707C35.3182 59.9707 34.3635 60.274 33.5643 60.8388C32.7651 61.4037 32.1606 62.2024 31.8339 63.125H34.7188V66.2812H31.8339C32.1606 67.2038 32.7651 68.0025 33.5643 68.5674C34.3635 69.1323 35.3182 69.4356 36.2969 69.4356C37.2756 69.4356 38.2302 69.1323 39.0294 68.5674C39.8287 68.0025 40.4332 67.2038 40.7598 66.2812H37.875V63.125H40.7598ZM39.4531 28.4062H33.1406V31.5625H39.4531V28.4062ZM77.3281 48.9219V45.7656H75.75V39.4531C75.75 39.0346 75.5837 38.6332 75.2878 38.3372C74.9918 38.0413 74.5904 37.875 74.1719 37.875C73.7533 37.875 73.3519 38.0413 73.056 38.3372C72.76 38.6332 72.5938 39.0346 72.5938 39.4531V45.7656H69.4375V39.4531C69.4375 39.0346 69.2712 38.6332 68.9753 38.3372C68.6793 38.0413 68.2779 37.875 67.8594 37.875C67.4408 37.875 67.0394 38.0413 66.7435 38.3372C66.4475 38.6332 66.2812 39.0346 66.2812 39.4531V45.7656H64.7031V48.9219H69.4375V52.0781H66.2812C66.2812 53.3338 66.7801 54.538 67.6679 55.4258C68.5558 56.3137 69.76 56.8125 71.0156 56.8125C72.2713 56.8125 73.4755 56.3137 74.3633 55.4258C75.2512 54.538 75.75 53.3338 75.75 52.0781H72.5938V48.9219H77.3281ZM40.7598 82.0625C40.4332 81.1399 39.8287 80.3412 39.0294 79.7764C38.2302 79.2115 37.2756 78.9081 36.2969 78.9081C35.3182 78.9081 34.3635 79.2115 33.5643 79.7764C32.7651 80.3412 32.1606 81.1399 31.8339 82.0625H34.7188V85.2188H31.8339C32.1606 86.1413 32.7651 86.94 33.5643 87.5049C34.3635 88.0698 35.3182 88.3731 36.2969 88.3731C37.2756 88.3731 38.2302 88.0698 39.0294 87.5049C39.8287 86.94 40.4332 86.1413 40.7598 85.2188H37.875V82.0625H40.7598ZM47.3438 24.0664V92.7148C47.3432 93.2378 47.1352 93.7393 46.7653 94.1091C46.3955 94.4789 45.8941 94.6869 45.3711 94.6875H27.2227C26.6997 94.6869 26.1982 94.4789 25.8284 94.1091C25.4586 93.7393 25.2506 93.2378 25.25 92.7148V24.0664C25.2506 23.5434 25.4586 23.042 25.8284 22.6722C26.1982 22.3023 26.6997 22.0943 27.2227 22.0938H45.3711C45.8941 22.0943 46.3955 22.3023 46.7653 22.6722C47.1352 23.042 47.3432 23.5434 47.3438 24.0664ZM29.9844 33.1406C29.9844 33.5592 30.1506 33.9606 30.4466 34.2565C30.7426 34.5525 31.144 34.7188 31.5625 34.7188H41.0312C41.4498 34.7188 41.8512 34.5525 42.1472 34.2565C42.4431 33.9606 42.6094 33.5592 42.6094 33.1406V26.8281C42.6094 26.4096 42.4431 26.0082 42.1472 25.7122C41.8512 25.4163 41.4498 25.25 41.0312 25.25H31.5625C31.144 25.25 30.7426 25.4163 30.4466 25.7122C30.1506 26.0082 29.9844 26.4096 29.9844 26.8281V33.1406ZM44.1875 83.6406C44.1875 82.08 43.7247 80.5544 42.8577 79.2568C41.9907 77.9592 40.7583 76.9479 39.3165 76.3506C37.8747 75.7534 36.2881 75.5972 34.7575 75.9016C33.2269 76.2061 31.8209 76.9576 30.7174 78.0611C29.6138 79.1646 28.8623 80.5706 28.5579 82.1012C28.2534 83.6319 28.4097 85.2184 29.0069 86.6602C29.6041 88.1021 30.6155 89.3344 31.9131 90.2014C33.2107 91.0685 34.7363 91.5312 36.2969 91.5312C38.3889 91.5289 40.3945 90.6968 41.8738 89.2175C43.3531 87.7383 44.1852 85.7326 44.1875 83.6406ZM44.1875 64.7031C44.1875 63.1425 43.7247 61.6169 42.8577 60.3193C41.9907 59.0217 40.7583 58.0104 39.3165 57.4131C37.8747 56.8159 36.2881 56.6597 34.7575 56.9641C33.2269 57.2686 31.8209 58.0201 30.7174 59.1236C29.6138 60.2271 28.8623 61.6331 28.5579 63.1637C28.2534 64.6944 28.4097 66.2809 29.0069 67.7227C29.6041 69.1646 30.6155 70.3969 31.9131 71.2639C33.2107 72.131 34.7363 72.5938 36.2969 72.5938C38.3889 72.5914 40.3945 71.7593 41.8738 70.28C43.3531 68.8008 44.1852 66.7951 44.1875 64.7031ZM44.1875 45.7656C44.1875 44.205 43.7247 42.6794 42.8577 41.3818C41.9907 40.0842 40.7583 39.0729 39.3165 38.4756C37.8747 37.8784 36.2881 37.7222 34.7575 38.0266C33.2269 38.3311 31.8209 39.0826 30.7174 40.1861C29.6138 41.2896 28.8623 42.6956 28.5579 44.2262C28.2534 45.7569 28.4097 47.3434 29.0069 48.7852C29.6041 50.2271 30.6155 51.4594 31.9131 52.3264C33.2107 53.1935 34.7363 53.6562 36.2969 53.6562C38.3889 53.6539 40.3945 52.8218 41.8738 51.3425C43.3531 49.8633 44.1852 47.8576 44.1875 45.7656ZM39.4531 15.7812H33.1406V20.5156H39.4531V15.7812ZM69.4375 89.9531C69.4375 91.2088 68.9387 92.413 68.0508 93.3008C67.163 94.1887 65.9588 94.6875 64.7031 94.6875C63.4475 94.6875 62.2433 94.1887 61.3554 93.3008C60.4676 92.413 59.9688 91.2088 59.9688 89.9531V14.2031C59.9655 11.2743 58.8005 8.46642 56.7296 6.39544C54.6586 4.32446 51.8507 3.15954 48.9219 3.15625H45.7656C42.8368 3.15954 40.0289 4.32446 37.9579 6.39544C35.887 8.46642 34.722 11.2743 34.7188 14.2031H37.875C37.8773 12.1111 38.7094 10.1055 40.1887 8.62621C41.668 7.14693 43.6736 6.31485 45.7656 6.3125H48.9219C51.0139 6.31485 53.0195 7.14693 54.4988 8.62621C55.9781 10.1055 56.8102 12.1111 56.8125 14.2031V89.9531C56.8125 92.0459 57.6438 94.0529 59.1236 95.5326C60.6034 97.0124 62.6104 97.8438 64.7031 97.8438C66.7958 97.8438 68.8029 97.0124 70.2826 95.5326C71.7624 94.0529 72.5938 92.0459 72.5938 89.9531V58.3906H69.4375V89.9531Z" fill="black"/>
</svg>
