<svg width="89" height="89" viewBox="0 0 89 89" fill="none" xmlns="http://www.w3.org/2000/svg">
<g clip-path="url(#clip0_27_420)">
<path d="M77.7923 15.0674L83.124 9.73509L67.6437 6.61907C60.5514 2.28829 52.6143 0 44.6569 0C33.8313 0 23.3832 4.09788 15.2405 11.3817L9.9088 6.04938L6.79278 21.5303C2.462 28.6227 0.173706 36.5597 0.173706 44.5171C0.173706 55.3421 4.27158 65.7901 11.5547 73.9329L6.22308 79.2646L21.704 82.3813C28.7964 86.7121 36.7334 88.9997 44.6909 88.9997C55.5158 88.9997 65.9638 84.9025 74.1066 77.6186L79.4491 82.9612L82.4565 67.8224L82.5353 67.7443L82.5978 67.4238C86.898 60.3661 89.17 52.4583 89.17 44.5192C89.17 33.4702 84.9268 23.0473 77.7923 15.0674ZM13.0995 16.6108L15.1895 18.7015L17.0324 16.8587C24.543 9.34805 34.3535 5.21215 44.6569 5.21215C48.7079 5.21215 52.759 5.89049 56.6701 7.20507L57.8815 13.2612C53.6464 11.4163 49.1615 10.4562 44.6705 10.4562C36.0062 10.4562 27.3385 13.9233 20.7181 20.5444L18.8752 22.3866L20.9605 24.4718L11.1324 26.4376C13.6257 13.983 12.9956 17.1289 13.0995 16.6108ZM16.7845 76.0745L18.8752 73.9845L17.0324 72.1417C9.52176 64.631 5.38585 54.8206 5.38585 44.5171C5.38585 40.4661 6.06419 36.4151 7.37809 32.5039L13.4349 31.2926C11.59 35.5276 10.6299 40.0125 10.6299 44.5042C10.6299 53.1678 14.097 61.8355 20.7174 68.456L22.5603 70.2988L24.6455 68.2142L26.6106 78.0417C14.1567 75.5483 17.3026 76.1784 16.7845 76.0745ZM27.8464 57.6419L22.639 62.85C18.2383 57.629 15.8421 51.2048 15.8421 44.5036C15.8421 39.5209 17.2578 34.5254 19.9461 29.9902L31.5321 27.6734L26.3241 22.4653C31.5444 18.0646 37.9692 15.6684 44.6698 15.6684C49.6531 15.6684 54.648 17.0848 59.1838 19.7723L61.5006 31.3584L66.7087 26.1504C71.1094 31.3713 73.505 37.7955 73.505 44.4968C73.505 49.4794 72.0893 54.475 69.4017 59.0101L57.8156 61.3269L63.0237 66.535C57.8027 70.9357 51.3785 73.332 44.6773 73.332C39.6946 73.332 34.6991 71.9156 30.1639 69.228L27.8464 57.6419ZM77.7217 65.1865L77.6525 65.2557L76.2374 72.3786L74.1575 70.2988L72.7567 71.6996C72.3887 71.9502 62.3548 83.7882 44.6902 83.7882C40.6398 83.7882 36.5881 83.1092 32.677 81.7953L31.4656 75.7391C35.7006 77.584 40.1856 78.5441 44.6773 78.5441C60.8406 78.5441 69.6108 67.2133 70.4718 66.6131L68.3872 64.5285L78.231 62.5594L77.7217 65.1865ZM81.9798 56.4944L75.9128 57.7078C77.757 53.4727 78.7172 48.9878 78.7172 44.4961C78.7172 35.8508 75.263 27.1784 68.6297 20.5444L66.7868 18.7015L64.7015 20.7861L62.7365 10.9587L72.5632 12.9258L70.4725 15.0158L72.3154 16.8587C79.8233 24.3666 83.9578 34.19 83.9578 44.5199C83.9578 48.5607 83.2842 52.5995 81.9798 56.4944Z" fill="black"/>
<path d="M62.1328 36.6819H47.2799V16.2007L27.2142 52.3184H42.0678V72.7996L62.1328 36.6819ZM36.0727 47.1062L42.0678 36.3146V41.8941H53.275L47.2799 52.685V47.1062H36.0727Z" fill="black"/>
</g>
<defs>
<clipPath id="clip0_27_420">
<rect width="89" height="89" rx="20" fill="white"/>
</clipPath>
</defs>
</svg>
