<svg width="92" height="92" viewBox="0 0 92 92" fill="none" xmlns="http://www.w3.org/2000/svg">
<g clip-path="url(#clip0_27_407)">
<path d="M89.034 61.65L47.7318 16.9577C46.461 15.6808 44.237 15.6808 42.9662 16.9577L1.66407 61.65C1.02865 62.6077 0.710939 63.8846 1.34636 65.1615C1.66407 66.4385 2.9349 67.0769 4.20574 67.0769H13.737V95.8077C13.737 97.7231 15.0078 99 16.9141 99H39.1537C41.06 99 42.3308 97.7231 42.3308 95.8077C42.3308 93.8923 41.06 92.6154 39.1537 92.6154H20.0912V66.4385C20.4089 66.4385 20.7266 66.1192 20.7266 65.8L45.5079 39.6231L70.2892 65.8C70.6069 66.1192 70.6069 66.1192 70.9246 66.4385V92.6154H55.0392C51.5444 92.6154 48.685 89.7423 48.685 86.2308V85.9115C54.086 84.6346 58.2162 79.5269 58.2162 73.4615V63.8846C58.2162 61.9692 56.9454 60.6923 55.0392 60.6923V54.3077C55.0392 52.3923 53.7683 51.1154 51.8621 51.1154C49.9558 51.1154 48.685 52.3923 48.685 54.3077V60.6923H42.3308V54.3077C42.3308 52.3923 41.06 51.1154 39.1537 51.1154C37.2475 51.1154 35.9766 52.3923 35.9766 54.3077V60.6923C34.0704 60.6923 32.7995 61.9692 32.7995 63.8846V73.4615C32.7995 79.5269 36.9297 84.3154 42.3308 85.9115V86.2308C42.3308 93.2538 48.0496 99 55.0392 99H74.1017C76.0079 99 77.2788 97.7231 77.2788 95.8077V67.0769H86.81C88.0809 67.0769 89.3517 66.4385 89.6694 65.1615C90.3048 63.8846 89.9871 62.6077 89.034 61.65Z" fill="black"/>
</g>
<defs>
<clipPath id="clip0_27_407">
<rect width="92" height="92" rx="20" fill="white"/>
</clipPath>
</defs>
</svg>
